<svg width="36" height="26" viewBox="0 0 36 26" fill="none" xmlns="http://www.w3.org/2000/svg">
<path d="M35.3913 2.17402H31.6784C30.4566 2.16926 29.4148 3.05886 29.2286 4.26674L26.2895 22.8329C26.0119 24.6331 24.459 25.9595 22.6373 25.9524H4.4696C4.13367 25.9524 3.86091 25.6797 3.86091 25.3437C3.86091 25.0074 4.13367 24.735 4.4696 24.735H22.6373C23.8591 24.7398 24.9009 23.8498 25.087 22.6423L25.5867 19.4857H6.97978C5.40438 19.4851 4.00221 18.4871 3.48591 16.999L0.0338249 7.03574C-0.0310516 6.8496 -0.00150299 6.64376 0.112629 6.4831C0.227097 6.32277 0.41188 6.22732 0.608891 6.22732H27.6858L28.0262 4.07618C28.3037 2.27592 29.8567 0.9495 31.6784 0.956633H35.3913C35.7276 0.956633 36 1.22939 36 1.56532C36 1.9016 35.7276 2.17402 35.3913 2.17402ZM1.46418 7.44505L4.63604 16.6002C4.98251 17.5985 5.92306 18.268 6.97978 18.2684H25.7796L27.4933 7.44471L1.46418 7.44505Z" fill="#6C5CE7"/>
</svg>
